# xmcd
#
# Track frame offsets:
#	150
#	13737
#	22657
#	36922
#	51555
#	66807
#	87285
#	107345
#	117505
#	132265
#	151450
#
# Disc length: 2278 seconds
#
# Revision: 1
# Processed by: cddbd v1.5PL3 Copyright (c) Steve Scherf et al.
# Submitted via: CDex 1.50Beta5
#
DISCID=8b08e40b
DTITLE=SUPER BELL”Z - スーパーベルズファン
DYEAR=2000
DGENRE=Rock
TTITLE0=アウトサイドサイドクダマ
TTITLE1=マグロマン
TTITLE2=老・ラッパー
TTITLE3=エアクルウ
TTITLE4=チャルメラおじさんの奇妙な冒険
TTITLE5=フルスクラッチ
TTITLE6=17〜seventeen〜
TTITLE7=六年間の一番の思い出 修学旅行
TTITLE8=謝罪ストレッチ
TTITLE9=ロボ老・ラッパー
TTITLE10=青い空に歌おうよ(東芝EMI讃歌)
EXTD=
EXTT0=
EXTT1=
EXTT2=
EXTT3=
EXTT4=
EXTT5=
EXTT6=
EXTT7=
EXTT8=
EXTT9=
EXTT10=
PLAYORDER=
